<?xml version="1.0" encoding="UTF-8" standalone="no"?>
<!DOCTYPE svg PUBLIC "-//W3C//DTD SVG 1.1//EN"
 "http://www.w3.org/Graphics/SVG/1.1/DTD/svg11.dtd">
<!-- Generated by graphviz version 12.2.1 (20241206.2353)
 -->
<!-- Title: G Pages: 1 -->
<svg width="727pt" height="418pt"
 viewBox="0.00 0.00 727.48 418.27" xmlns="http://www.w3.org/2000/svg" xmlns:xlink="http://www.w3.org/1999/xlink">
<g id="graph0" class="graph" transform="scale(1 1) rotate(0) translate(4 414.27)">
<title>G</title><style>.edge>path:hover{stroke-width:8}</style>
<polygon fill="white" stroke="none" points="-4,4 -4,-414.27 723.48,-414.27 723.48,4 -4,4"/>
<!-- backend_admin -->
<g id="node1" class="node">
<title>backend_admin</title><style>.edge>path:hover{stroke-width:8}</style>
<ellipse fill="#924e4e" stroke="black" cx="142.16" cy="-97.13" rx="48.52" ry="18"/>
<text text-anchor="middle" x="142.16" y="-93.26" font-family="Helvetica,sans-Serif" font-size="10.00" fill="#ffffff">backend.admin</text>
</g>
<!-- backend_apps -->
<g id="node2" class="node">
<title>backend_apps</title><style>.edge>path:hover{stroke-width:8}</style>
<ellipse fill="#9f5656" stroke="black" cx="423.16" cy="-97.13" rx="45.41" ry="18"/>
<text text-anchor="middle" x="423.16" y="-93.26" font-family="Helvetica,sans-Serif" font-size="10.00" fill="#ffffff">backend.apps</text>
</g>
<!-- backend_clients -->
<g id="node3" class="node">
<title>backend_clients</title><style>.edge>path:hover{stroke-width:8}</style>
<polygon fill="blue" stroke="black" points="133.04,-410.27 77.29,-410.27 77.29,-374.27 133.04,-374.27 133.04,-410.27"/>
<text text-anchor="middle" x="105.16" y="-394.02" font-family="Helvetica,sans-Serif" font-size="10.00" fill="white">backend.</text>
<text text-anchor="middle" x="105.16" y="-382.77" font-family="Helvetica,sans-Serif" font-size="10.00" fill="white">clients</text>
</g>
<!-- backend_clients&#45;&gt;backend_admin -->
<g id="edge1" class="edge">
<title>backend_clients&#45;&gt;backend_admin</title><style>.edge>path:hover{stroke-width:8}</style>
<path fill="none" stroke="black" d="M81.91,-373.85C45.26,-344.11 -19.31,-281.13 6.16,-223.13 26.58,-176.63 73.78,-139.83 106.82,-118.52"/>
<polygon fill="blue" stroke="black" points="108.25,-121.75 114.86,-113.47 104.53,-115.82 108.25,-121.75"/>
</g>
<!-- backend_core -->
<g id="node5" class="node">
<title>backend_core</title><style>.edge>path:hover{stroke-width:8}</style>
<polygon fill="blue" stroke="black" points="408.41,-338.27 333.91,-338.27 333.91,-302.27 408.41,-302.27 408.41,-338.27"/>
<text text-anchor="middle" x="371.16" y="-316.39" font-family="Helvetica,sans-Serif" font-size="10.00" fill="white">backend.core</text>
</g>
<!-- backend_clients&#45;&gt;backend_core -->
<g id="edge2" class="edge">
<title>backend_clients&#45;&gt;backend_core</title><style>.edge>path:hover{stroke-width:8}</style>
<path fill="none" stroke="black" d="M144,-381.05C191.34,-368.59 271.37,-347.53 322.7,-334.02"/>
<polygon fill="blue" stroke="black" points="143.37,-377.59 134.59,-383.52 145.15,-384.36 143.37,-377.59"/>
<polygon fill="blue" stroke="black" points="323.58,-337.41 332.36,-331.48 321.8,-330.64 323.58,-337.41"/>
</g>
<!-- backend_finance -->
<g id="node7" class="node">
<title>backend_finance</title><style>.edge>path:hover{stroke-width:8}</style>
<polygon fill="blue" stroke="black" points="260.04,-187.13 204.29,-187.13 204.29,-151.13 260.04,-151.13 260.04,-187.13"/>
<text text-anchor="middle" x="232.16" y="-170.88" font-family="Helvetica,sans-Serif" font-size="10.00" fill="white">backend.</text>
<text text-anchor="middle" x="232.16" y="-159.63" font-family="Helvetica,sans-Serif" font-size="10.00" fill="white">finance</text>
</g>
<!-- backend_clients&#45;&gt;backend_finance -->
<g id="edge3" class="edge">
<title>backend_clients&#45;&gt;backend_finance</title><style>.edge>path:hover{stroke-width:8}</style>
<path fill="none" stroke="black" d="M107.58,-374C112.79,-341.71 127.55,-271.13 162.16,-223.13 170.81,-211.13 182.97,-200.62 194.72,-192.18"/>
<polygon fill="blue" stroke="black" points="196.44,-195.24 202.74,-186.72 192.5,-189.46 196.44,-195.24"/>
</g>
<!-- backend_models -->
<g id="node10" class="node">
<title>backend_models</title><style>.edge>path:hover{stroke-width:8}</style>
<polygon fill="blue" stroke="black" points="602.79,-115.13 515.54,-115.13 515.54,-79.13 602.79,-79.13 602.79,-115.13"/>
<text text-anchor="middle" x="559.16" y="-93.26" font-family="Helvetica,sans-Serif" font-size="10.00" fill="white">backend.models</text>
</g>
<!-- backend_clients&#45;&gt;backend_models -->
<g id="edge4" class="edge">
<title>backend_clients&#45;&gt;backend_models</title><style>.edge>path:hover{stroke-width:8}</style>
<path fill="none" stroke="black" d="M133.5,-389.65C189.26,-385.78 316.57,-373.51 417.16,-338.27 479.49,-316.43 505.35,-317.39 547.16,-266.27 580.31,-225.73 578.44,-203.12 572.16,-151.13 571.18,-143.04 569.4,-134.41 567.45,-126.51"/>
<polygon fill="blue" stroke="black" points="570.9,-125.84 564.96,-117.07 564.13,-127.63 570.9,-125.84"/>
</g>
<!-- backend_context_processors -->
<g id="node4" class="node">
<title>backend_context_processors</title><style>.edge>path:hover{stroke-width:8}</style>
<ellipse fill="#9f5656" stroke="black" cx="421.16" cy="-244.7" rx="71.77" ry="21.57"/>
<text text-anchor="middle" x="421.16" y="-246.45" font-family="Helvetica,sans-Serif" font-size="10.00" fill="#ffffff">backend.</text>
<text text-anchor="middle" x="421.16" y="-235.2" font-family="Helvetica,sans-Serif" font-size="10.00" fill="#ffffff">context_processors</text>
</g>
<!-- backend_core&#45;&gt;backend_admin -->
<g id="edge5" class="edge">
<title>backend_core&#45;&gt;backend_admin</title><style>.edge>path:hover{stroke-width:8}</style>
<path fill="none" stroke="black" d="M333.61,-314.84C279.73,-307.68 184.51,-291.73 162.16,-266.27 128.21,-227.59 131.34,-163.19 136.71,-126.33"/>
<polygon fill="blue" stroke="black" points="140.1,-127.33 138.25,-116.89 133.19,-126.2 140.1,-127.33"/>
</g>
<!-- backend_core&#45;&gt;backend_apps -->
<g id="edge6" class="edge">
<title>backend_core&#45;&gt;backend_apps</title><style>.edge>path:hover{stroke-width:8}</style>
<path fill="none" stroke="black" d="M408.75,-315.34C439.6,-309.9 481.45,-296.98 502.16,-266.27 534.32,-218.56 483.3,-155.7 449.41,-121.97"/>
<polygon fill="blue" stroke="black" points="451.93,-119.54 442.31,-115.1 447.07,-124.57 451.93,-119.54"/>
</g>
<!-- backend_core&#45;&gt;backend_context_processors -->
<g id="edge8" class="edge">
<title>backend_core&#45;&gt;backend_context_processors</title><style>.edge>path:hover{stroke-width:8}</style>
<path fill="none" stroke="black" d="M383.01,-301.83C388.35,-293.97 394.82,-284.46 400.9,-275.52"/>
<polygon fill="blue" stroke="black" points="403.69,-277.63 406.42,-267.39 397.9,-273.7 403.69,-277.63"/>
</g>
<!-- backend_decorators -->
<g id="node6" class="node">
<title>backend_decorators</title><style>.edge>path:hover{stroke-width:8}</style>
<polygon fill="blue" stroke="black" points="77.04,-262.7 15.29,-262.7 15.29,-226.7 77.04,-226.7 77.04,-262.7"/>
<text text-anchor="middle" x="46.16" y="-246.45" font-family="Helvetica,sans-Serif" font-size="10.00" fill="white">backend.</text>
<text text-anchor="middle" x="46.16" y="-235.2" font-family="Helvetica,sans-Serif" font-size="10.00" fill="white">decorators</text>
</g>
<!-- backend_core&#45;&gt;backend_decorators -->
<g id="edge9" class="edge">
<title>backend_core&#45;&gt;backend_decorators</title><style>.edge>path:hover{stroke-width:8}</style>
<path fill="none" stroke="black" d="M322.58,-309.04C273.66,-298.64 196.05,-281.88 129.16,-266.27 115.85,-263.16 101.39,-259.63 88.31,-256.38"/>
<polygon fill="blue" stroke="black" points="321.79,-312.44 332.3,-311.1 323.24,-305.6 321.79,-312.44"/>
<polygon fill="blue" stroke="black" points="89.27,-253.01 78.72,-253.98 87.57,-259.8 89.27,-253.01"/>
</g>
<!-- backend_core&#45;&gt;backend_finance -->
<g id="edge10" class="edge">
<title>backend_core&#45;&gt;backend_finance</title><style>.edge>path:hover{stroke-width:8}</style>
<path fill="none" stroke="black" d="M338.94,-294.86C328.38,-286.28 316.88,-276.27 307.16,-266.27 285.87,-244.34 264.74,-216.57 250.36,-196.52"/>
<polygon fill="blue" stroke="black" points="336.72,-297.56 346.72,-301.05 341.08,-292.09 336.72,-297.56"/>
<polygon fill="blue" stroke="black" points="253.38,-194.73 244.75,-188.59 247.67,-198.78 253.38,-194.73"/>
</g>
<!-- backend_middleware -->
<g id="node9" class="node">
<title>backend_middleware</title><style>.edge>path:hover{stroke-width:8}</style>
<ellipse fill="#995252" stroke="black" cx="673.16" cy="-21.57" rx="46.32" ry="21.57"/>
<text text-anchor="middle" x="673.16" y="-23.32" font-family="Helvetica,sans-Serif" font-size="10.00" fill="#ffffff">backend.</text>
<text text-anchor="middle" x="673.16" y="-12.07" font-family="Helvetica,sans-Serif" font-size="10.00" fill="#ffffff">middleware</text>
</g>
<!-- backend_core&#45;&gt;backend_middleware -->
<g id="edge11" class="edge">
<title>backend_core&#45;&gt;backend_middleware</title><style>.edge>path:hover{stroke-width:8}</style>
<path fill="none" stroke="black" d="M408.54,-318.04C453.61,-314.85 529.83,-303.8 582.16,-266.27 651.08,-216.84 667.85,-108.78 671.9,-54.72"/>
<polygon fill="blue" stroke="black" points="675.38,-55.14 672.52,-44.94 668.4,-54.69 675.38,-55.14"/>
</g>
<!-- backend_core&#45;&gt;backend_models -->
<g id="edge12" class="edge">
<title>backend_core&#45;&gt;backend_models</title><style>.edge>path:hover{stroke-width:8}</style>
<path fill="none" stroke="black" d="M420.14,-314.22C453.29,-308.22 495.55,-295.07 521.16,-266.27 555.73,-227.38 560.87,-163.77 560.61,-126.95"/>
<polygon fill="blue" stroke="black" points="419.64,-310.76 410.33,-315.82 420.77,-317.67 419.64,-310.76"/>
<polygon fill="blue" stroke="black" points="564.11,-127 560.39,-117.08 557.12,-127.16 564.11,-127"/>
</g>
<!-- backend_storage -->
<g id="node11" class="node">
<title>backend_storage</title><style>.edge>path:hover{stroke-width:8}</style>
<ellipse fill="#964040" stroke="black" cx="321.16" cy="-21.57" rx="39.42" ry="21.57"/>
<text text-anchor="middle" x="321.16" y="-23.32" font-family="Helvetica,sans-Serif" font-size="10.00" fill="#ffffff">backend.</text>
<text text-anchor="middle" x="321.16" y="-12.07" font-family="Helvetica,sans-Serif" font-size="10.00" fill="#ffffff">storage</text>
</g>
<!-- backend_core&#45;&gt;backend_storage -->
<g id="edge13" class="edge">
<title>backend_core&#45;&gt;backend_storage</title><style>.edge>path:hover{stroke-width:8}</style>
<path fill="none" stroke="black" d="M321.16,-168.13C308.94,-130.58 311.64,-84.64 315.6,-54.54"/>
<polygon fill="blue" stroke="black" points="319.02,-55.34 316.99,-44.94 312.09,-54.34 319.02,-55.34"/>
</g>
<!-- backend_templatetags -->
<g id="node12" class="node">
<title>backend_templatetags</title><style>.edge>path:hover{stroke-width:8}</style>
<ellipse fill="#995252" stroke="black" cx="558.16" cy="-21.57" rx="51.09" ry="21.57"/>
<text text-anchor="middle" x="558.16" y="-23.32" font-family="Helvetica,sans-Serif" font-size="10.00" fill="#ffffff">backend.</text>
<text text-anchor="middle" x="558.16" y="-12.07" font-family="Helvetica,sans-Serif" font-size="10.00" fill="#ffffff">templatetags</text>
</g>
<!-- backend_core&#45;&gt;backend_templatetags -->
<g id="edge14" class="edge">
<title>backend_core&#45;&gt;backend_templatetags</title><style>.edge>path:hover{stroke-width:8}</style>
<path fill="none" stroke="black" d="M408.6,-317.08C447.61,-312.92 508.35,-300.9 547.16,-266.27 612.85,-207.65 644.91,-160.86 612.16,-79.13 607.61,-67.77 599.56,-57.39 591.05,-48.72"/>
<polygon fill="blue" stroke="black" points="593.61,-46.32 583.94,-41.98 588.79,-51.4 593.61,-46.32"/>
</g>
<!-- backend_urls -->
<g id="node13" class="node">
<title>backend_urls</title><style>.edge>path:hover{stroke-width:8}</style>
<ellipse fill="#995252" stroke="black" cx="251.16" cy="-97.13" rx="42.31" ry="18"/>
<text text-anchor="middle" x="251.16" y="-93.26" font-family="Helvetica,sans-Serif" font-size="10.00" fill="#ffffff">backend.urls</text>
</g>
<!-- backend_core&#45;&gt;backend_urls -->
<g id="edge15" class="edge">
<title>backend_core&#45;&gt;backend_urls</title><style>.edge>path:hover{stroke-width:8}</style>
<path fill="none" stroke="black" d="M358.98,-301.86C352.5,-291.86 344.92,-278.83 340.16,-266.27 324.73,-225.54 330.93,-212.58 321.16,-170.13"/>
<path fill="none" stroke="black" d="M321.16,-168.13C314.73,-148.37 298.76,-131.66 283.7,-119.53"/>
<polygon fill="blue" stroke="black" points="285.82,-116.75 275.73,-113.5 281.59,-122.33 285.82,-116.75"/>
</g>
<!-- backend_decorators&#45;&gt;backend_clients -->
<g id="edge16" class="edge">
<title>backend_decorators&#45;&gt;backend_clients</title><style>.edge>path:hover{stroke-width:8}</style>
<path fill="none" stroke="black" d="M53.15,-262.95C63.22,-287.78 81.89,-333.86 93.91,-363.51"/>
<polygon fill="blue" stroke="black" points="90.59,-364.64 97.59,-372.59 97.08,-362.01 90.59,-364.64"/>
</g>
<!-- backend_decorators&#45;&gt;backend_finance -->
<g id="edge18" class="edge">
<title>backend_decorators&#45;&gt;backend_finance</title><style>.edge>path:hover{stroke-width:8}</style>
<path fill="none" stroke="black" d="M77.51,-229.04C82.07,-227 86.72,-224.98 91.16,-223.13 125.27,-208.95 164.66,-194.28 193.13,-183.98"/>
<polygon fill="blue" stroke="black" points="194.2,-187.32 202.42,-180.64 191.83,-180.73 194.2,-187.32"/>
</g>
<!-- backend_decorators&#45;&gt;backend_storage -->
<g id="edge19" class="edge">
<title>backend_decorators&#45;&gt;backend_storage</title><style>.edge>path:hover{stroke-width:8}</style>
<path fill="none" stroke="black" d="M44.7,-226.26C42.93,-192.82 44.19,-119.4 84.16,-79.13 109.99,-53.12 209.49,-36.4 271.06,-28.31"/>
<polygon fill="blue" stroke="black" points="271.48,-31.79 280.96,-27.05 270.59,-24.84 271.48,-31.79"/>
</g>
<!-- backend_finance&#45;&gt;backend_admin -->
<g id="edge20" class="edge">
<title>backend_finance&#45;&gt;backend_admin</title><style>.edge>path:hover{stroke-width:8}</style>
<path fill="none" stroke="black" d="M209.91,-150.83C198.19,-141.71 183.66,-130.41 171.07,-120.62"/>
<polygon fill="blue" stroke="black" points="173.55,-118.11 163.5,-114.73 169.25,-123.64 173.55,-118.11"/>
</g>
<!-- backend_finance&#45;&gt;backend_apps -->
<g id="edge21" class="edge">
<title>backend_finance&#45;&gt;backend_apps</title><style>.edge>path:hover{stroke-width:8}</style>
<path fill="none" stroke="black" d="M260.34,-157.8C291.98,-146.21 343.68,-127.26 380.32,-113.83"/>
<polygon fill="blue" stroke="black" points="381.1,-117.28 389.28,-110.55 378.69,-110.7 381.1,-117.28"/>
</g>
<!-- backend_finance&#45;&gt;backend_models -->
<g id="edge23" class="edge">
<title>backend_finance&#45;&gt;backend_models</title><style>.edge>path:hover{stroke-width:8}</style>
<path fill="none" stroke="black" d="M271.35,-159.13C282.88,-156.51 295.52,-153.68 307.16,-151.13 343.96,-143.09 441.5,-122.67 503.88,-109.66"/>
<polygon fill="blue" stroke="black" points="270.72,-155.68 261.75,-161.32 272.28,-162.51 270.72,-155.68"/>
<polygon fill="blue" stroke="black" points="504.53,-113.09 513.61,-107.62 503.1,-106.24 504.53,-113.09"/>
</g>
<!-- backend_finance&#45;&gt;backend_urls -->
<g id="edge24" class="edge">
<title>backend_finance&#45;&gt;backend_urls</title><style>.edge>path:hover{stroke-width:8}</style>
<path fill="none" stroke="black" d="M236.86,-150.83C238.88,-143.37 241.3,-134.46 243.57,-126.1"/>
<polygon fill="blue" stroke="black" points="246.88,-127.27 246.12,-116.7 240.12,-125.43 246.88,-127.27"/>
</g>
<!-- backend_managers -->
<g id="node8" class="node">
<title>backend_managers</title><style>.edge>path:hover{stroke-width:8}</style>
<ellipse fill="#b65353" stroke="black" cx="213.16" cy="-244.7" rx="41.54" ry="21.57"/>
<text text-anchor="middle" x="213.16" y="-246.45" font-family="Helvetica,sans-Serif" font-size="10.00" fill="#ffffff">backend.</text>
<text text-anchor="middle" x="213.16" y="-235.2" font-family="Helvetica,sans-Serif" font-size="10.00" fill="#ffffff">managers</text>
</g>
<!-- backend_managers&#45;&gt;backend_finance -->
<g id="edge25" class="edge">
<title>backend_managers&#45;&gt;backend_finance</title><style>.edge>path:hover{stroke-width:8}</style>
<path fill="none" stroke="black" d="M218.45,-223.21C220.42,-215.58 222.7,-206.78 224.82,-198.56"/>
<polygon fill="#b65353" stroke="black" points="228.18,-199.55 227.29,-188.99 221.4,-197.8 228.18,-199.55"/>
</g>
<!-- backend_models&#45;&gt;backend_middleware -->
<g id="edge28" class="edge">
<title>backend_models&#45;&gt;backend_middleware</title><style>.edge>path:hover{stroke-width:8}</style>
<path fill="none" stroke="black" d="M586.18,-78.7C601.48,-68.83 620.81,-56.35 637.36,-45.67"/>
<polygon fill="blue" stroke="black" points="638.96,-48.81 645.46,-40.44 635.16,-42.92 638.96,-48.81"/>
</g>
<!-- backend_models&#45;&gt;backend_storage -->
<g id="edge29" class="edge">
<title>backend_models&#45;&gt;backend_storage</title><style>.edge>path:hover{stroke-width:8}</style>
<path fill="none" stroke="black" d="M515.23,-82.55C472.69,-69.41 408.53,-49.57 365.76,-36.35"/>
<polygon fill="blue" stroke="black" points="366.88,-33.03 356.29,-33.42 364.81,-39.72 366.88,-33.03"/>
</g>
<!-- backend_models&#45;&gt;backend_templatetags -->
<g id="edge30" class="edge">
<title>backend_models&#45;&gt;backend_templatetags</title><style>.edge>path:hover{stroke-width:8}</style>
<path fill="none" stroke="black" d="M558.92,-78.7C558.83,-71.54 558.71,-63.01 558.6,-54.79"/>
<polygon fill="blue" stroke="black" points="562.1,-55.01 558.47,-45.06 555.1,-55.1 562.1,-55.01"/>
</g>
</g>
</svg>
